<mxfile host="app.diagrams.net" modified="2024-01-03T21:29:15.718Z" agent="Mozilla/5.0 (X11; Ubuntu; Linux x86_64; rv:120.0) Gecko/20100101 Firefox/120.0" version="22.1.16" etag="CHhbM1g4x644y72T5120" type="github">
  <diagram name="Page-1" id="sx6ofVw6B-ByfjF5uP0H">
    <mxGraphModel>
      <root>
        <mxCell id="0" />
        <mxCell id="1" parent="0" />
      </root>
    </mxGraphModel>
  </diagram>
</mxfile>
